<svg xmlns="http://www.w3.org/2000/svg" width="89.122" height="63.033" viewBox="0 0 89.122 63.033">
  <g id="AR_-_logo" data-name="AR - logo" transform="translate(-638.98 -346.508)">
    <path id="Path_1" data-name="Path 1" d="M866.249,346.508h26l1.163.063,1.119.108,1.526.218,1.526.317,1.507.575,1.527.654,1.586.952,1.018.721,1.853,1.335.837.62.515.535.456.456.615.694.476.555.449.594.651.764.475.625.459.646.507.716.294.469.262.459.4.673.393.645.317.952.277,1.255.179,1.322.112,9.413-.291,1.114-.278.872-.671,1.732-.671,1.24-.671,1.139-.8,1.006-.8,1.006-1.173,1.106-.917.7-.773.694-.674.694-.753.615-.773.694-.555.4.3.476,13.347,22.916H901.465l-18.8-32.106h11.778a3.209,3.209,0,0,1,.377-.223c.1-.036,1.047-.884,1.047-.884l1.174-1.065,1.462-1.345.965-1.038s.677-1.263.686-1.336.352-1.651.352-1.651l.18-2.229-.117-1.48-.559-1.615-.713-1.209-1.011-1.336L897,360.341l-1.164-.812-1.425-.65-1.534-.406-.569-.171-.334-.072L872.3,358.3l-6.446-11.088-.427-.707Z" transform="translate(-188.477)" fill="#ff7a00"/>
    <path id="Path_2" data-name="Path 2" d="M759.081,346.51l36.1,62.7H781.752l-29.665-51.747Z" transform="translate(-94.144 0.334)" fill="#080133"/>
    <path id="Path_6" data-name="Path 6" d="M645.775,531.115h13.25l5.832,11.516H638.98Z" transform="translate(0 -153.656)" fill="#080133"/>
  </g>
</svg>
