<svg xmlns="http://www.w3.org/2000/svg" width="29.66" height="20.854" viewBox="0 0 29.66 20.854">
  <path id="Icon_awesome-youtube" data-name="Icon awesome-youtube" d="M30.09,7.763a3.727,3.727,0,0,0-2.622-2.639C25.155,4.5,15.88,4.5,15.88,4.5s-9.275,0-11.588.624A3.727,3.727,0,0,0,1.67,7.763a39.1,39.1,0,0,0-.62,7.185,39.1,39.1,0,0,0,.62,7.185,3.671,3.671,0,0,0,2.622,2.6c2.313.624,11.588.624,11.588.624s9.275,0,11.588-.624a3.671,3.671,0,0,0,2.622-2.6,39.1,39.1,0,0,0,.62-7.185,39.1,39.1,0,0,0-.62-7.185Zm-17.244,11.6v-8.82l7.752,4.41-7.752,4.41Z" transform="translate(-1.05 -4.5)" fill="#080133"/>
</svg>
