<svg xmlns="http://www.w3.org/2000/svg" width="27.853" height="22.622" viewBox="0 0 27.853 22.622">
  <path id="Icon_awesome-twitter" data-name="Icon awesome-twitter" d="M24.99,9.018c.018.247.018.495.018.742C25.008,17.307,19.264,26,8.766,26A16.132,16.132,0,0,1,0,23.44a11.809,11.809,0,0,0,1.379.071,11.432,11.432,0,0,0,7.087-2.439,5.719,5.719,0,0,1-5.337-3.959,7.2,7.2,0,0,0,1.078.088,6.038,6.038,0,0,0,1.5-.194,5.709,5.709,0,0,1-4.577-5.6v-.071a5.749,5.749,0,0,0,2.58.725A5.717,5.717,0,0,1,1.944,4.423,16.226,16.226,0,0,0,13.714,10.4a6.444,6.444,0,0,1-.141-1.308,5.714,5.714,0,0,1,9.879-3.906A11.239,11.239,0,0,0,27.075,3.8a5.693,5.693,0,0,1-2.51,3.146,11.444,11.444,0,0,0,3.287-.884A12.271,12.271,0,0,1,24.99,9.018Z" transform="translate(0 -3.381)" fill="#080133"/>
</svg>
